<svg width="13" height="14" viewBox="0 0 13 14" fill="none" xmlns="http://www.w3.org/2000/svg">
<g id="Group">
<path id="Vector (Stroke)" fill-rule="evenodd" clip-rule="evenodd" d="M6.28141 1.27417C5.10144 1.27417 4.14276 2.23091 4.14276 3.41282C4.14276 4.59279 5.09951 5.55146 6.28141 5.55146C7.46355 5.55146 8.42006 4.59496 8.42006 3.41282C8.42006 2.23067 7.46355 1.27417 6.28141 1.27417ZM3.36859 3.41282C3.36859 1.80287 4.67436 0.5 6.28141 0.5C7.89112 0.5 9.19423 1.80311 9.19423 3.41282C9.19423 5.02253 7.89112 6.32564 6.28141 6.32564C4.67146 6.32564 3.36859 5.01987 3.36859 3.41282Z" fill="white"/>
<g id="Group_2">
<g id="Group_3">
<path id="Vector (Stroke)_2" fill-rule="evenodd" clip-rule="evenodd" d="M2.33074 7.77588C3.34726 6.48099 4.72988 5.6543 6.28138 5.6543C7.83293 5.6543 9.21613 6.48159 10.2329 7.77669C11.2494 9.07148 11.9186 10.8527 12.0601 12.8338L12.0897 13.2484H0.472839L0.502711 12.8335C0.645409 10.8516 1.31451 9.0704 2.33074 7.77588ZM1.31332 12.4743H11.2497C11.0603 10.7983 10.4645 9.32541 9.62399 8.25476C8.71502 7.09698 7.53862 6.42847 6.28138 6.42847C5.0241 6.42847 3.84832 7.09647 2.93969 8.25392C2.0994 9.32432 1.50366 10.7972 1.31332 12.4743Z" fill="white"/>
</g>
<g id="Group_4">
<path id="Vector (Stroke)_3" fill-rule="evenodd" clip-rule="evenodd" d="M4.26927 10.4672L3.63784 12.7722L2.89117 12.5677L3.52261 10.2627L4.26927 10.4672Z" fill="white"/>
<path id="Vector (Stroke)_4" fill-rule="evenodd" clip-rule="evenodd" d="M8.92733 12.7722L8.2959 10.4672L9.04256 10.2627L9.67399 12.5677L8.92733 12.7722Z" fill="white"/>
</g>
</g>
</g>
</svg>
