
<svg width="35" height="35" viewBox="0 0 35 35" fill="none" xmlns="http://www.w3.org/2000/svg">
<path d="M20.4167 2.91667C20.4167 2.91667 23.625 3.20833 27.7083 7.29167C31.7917 11.375 32.0833 14.5833 32.0833 14.5833" stroke="#fff" stroke-width="3.75" stroke-linecap="round"/>
<path d="M20.7185 8.07281C20.7185 8.07281 22.1623 8.4853 24.3278 10.6508C26.4932 12.8163 26.9058 14.26 26.9058 14.26" stroke="#fff" stroke-width="3.75" stroke-linecap="round"/>
<path d="M5.84289 11.5691C5.73739 14.3518 6.44165 19.0775 11.1821 23.8179C12.3257 24.9616 13.4685 25.8703 14.5833 26.5894M8.07597 7.20013C10.1074 5.16874 13.3484 5.44168 14.6382 7.75275L15.5846 9.44869C16.4388 10.9792 16.0959 12.9869 14.7506 14.3322C14.7506 14.3322 13.119 15.9641 16.0774 18.9226C19.0349 21.8801 20.6678 20.2494 20.6678 20.2494C22.0131 18.9041 24.0208 18.5612 25.5513 19.4154L27.2472 20.3618C29.5584 21.6516 29.8312 24.8926 27.7999 26.924C26.5793 28.1447 25.0839 29.0945 23.4309 29.157C22.2438 29.2021 20.7029 29.0997 18.9583 28.5995" stroke="#fff" stroke-width="3.75" stroke-linecap="round"/>
</svg>
