
<svg width="35" height="35" viewBox="0 0 35 35" fill="none" xmlns="http://www.w3.org/2000/svg">
<path d="M28.5508 13.3974C29.1844 12.9579 29.5996 12.2257 29.5996 11.3961C29.5996 10.7475 29.3454 10.1585 28.9319 9.72207C29.0765 9.36141 29.1568 8.968 29.1568 8.55565C29.1568 6.82391 27.7531 5.42008 26.0214 5.42008C26 5.42008 25.979 5.42131 25.9577 5.42165C25.7592 3.88097 24.4435 2.69021 22.8488 2.69021C22.5814 2.69021 22.3217 2.72392 22.0737 2.78701C21.4046 1.62709 20.1525 0.845811 18.7173 0.845811C18.2917 0.845811 17.8828 0.9154 17.4999 1.04214C17.1169 0.9154 16.708 0.845811 16.2825 0.845811C14.8472 0.845811 13.5952 1.62709 12.926 2.78701C12.6781 2.72398 12.4184 2.69021 12.1509 2.69021C10.5563 2.69021 9.24062 3.88097 9.04217 5.42165C9.02091 5.42124 8.99985 5.42008 8.97846 5.42008C7.24671 5.42008 5.84288 6.82391 5.84288 8.55565C5.84288 8.96807 5.92327 9.36147 6.06792 9.72207C5.65435 10.1585 5.40019 10.7475 5.40019 11.3961C5.40019 12.2257 5.81533 12.9579 6.44889 13.3974C6.37615 13.4462 6.30684 13.5023 6.24258 13.5665C5.70958 14.0996 5.70958 14.9637 6.24258 15.4968C6.68254 15.9367 7.34754 16.0125 7.86625 15.7263C8.71158 20.2647 12.6919 23.7007 17.4754 23.7007C22.2679 23.7007 26.2545 20.2517 27.0895 15.7004C27.6141 16.0161 28.3045 15.9491 28.7569 15.4967C29.29 14.9637 29.29 14.0995 28.7569 13.5665C28.6929 13.5023 28.6236 13.4462 28.5508 13.3974Z" fill="#96914B"/>
<path d="M25.1361 30.9911C25.1361 35.2084 9.86392 35.2084 9.86392 30.9911C9.86392 26.7739 13.2827 23.3551 17.4999 23.3551C21.7173 23.3551 25.1361 26.7739 25.1361 30.9911Z" fill="#D1375F"/>
<path d="M17.5 23.3551C13.7307 23.3551 10.5995 26.0864 9.97691 29.6777C11.2905 33.0883 23.7096 33.0883 25.0232 29.6777C24.4005 26.0864 21.2694 23.3551 17.5 23.3551Z" fill="#EF5B7B"/>
<path d="M17.5 18.839C18.865 18.839 19.9716 17.7325 19.9716 16.3674C19.9716 15.0024 18.865 13.8958 17.5 13.8958C16.135 13.8958 15.0284 15.0024 15.0284 16.3674C15.0284 17.7325 16.135 18.839 17.5 18.839Z" fill="#FFF2DC"/>
<path d="M17.5 27.471C19.1706 27.471 20.5249 26.1167 20.5249 24.4461C20.5249 22.7755 19.1706 21.4212 17.5 21.4212C15.8294 21.4212 14.4751 22.7755 14.4751 24.4461C14.4751 26.1167 15.8294 27.471 17.5 27.471Z" fill="#FFBF94"/>
<path d="M17.5 21.4212C16.1511 21.4212 15.0088 22.3043 14.6188 23.5238C15.0088 24.7434 16.1511 25.6266 17.5 25.6266C18.8489 25.6266 19.9912 24.7434 20.3813 23.5238C19.9911 22.3043 18.8489 21.4212 17.5 21.4212Z" fill="#ED9572"/>
<path d="M17.5 18.839C18.865 18.839 19.9716 17.7325 19.9716 16.3674C19.9716 15.0024 18.865 13.8958 17.5 13.8958C16.135 13.8958 15.0284 15.0024 15.0284 16.3674C15.0284 17.7325 16.135 18.839 17.5 18.839Z" fill="#FFF2DC"/>
<path d="M18.1705 27.7297C18.2948 27.8586 18.4689 27.9391 18.6621 27.9391C19.0397 27.9391 19.3457 27.633 19.3457 27.2555C19.3457 27.2225 19.3426 27.1904 19.3381 27.1586C19.4404 27.2197 19.5596 27.2555 19.6875 27.2555C20.065 27.2555 20.3711 26.9494 20.3711 26.5719C20.3711 26.444 20.3353 26.3248 20.2743 26.2224C20.3059 26.2269 20.3381 26.2301 20.3711 26.2301C20.7486 26.2301 21.0547 25.924 21.0547 25.5465C21.0547 25.3507 20.9719 25.1746 20.84 25.05C21.0494 24.9331 21.1914 24.7096 21.1914 24.4528C21.1914 24.4025 21.1857 24.3536 21.1753 24.3063C20.9558 24.1848 20.7296 24.0737 20.4976 23.9738C20.522 24.1278 20.5358 24.2853 20.5358 24.4461C20.5358 26.1167 19.1815 27.471 17.5109 27.471C15.8403 27.471 14.486 26.1167 14.486 24.4461C14.486 24.2765 14.5007 24.1103 14.5278 23.9483C14.2889 24.0487 14.0563 24.1609 13.8304 24.2843C13.8167 24.3382 13.8087 24.3945 13.8087 24.4528C13.8087 24.7097 13.9505 24.9331 14.16 25.05C14.0281 25.1746 13.9454 25.3506 13.9454 25.5465C13.9454 25.924 14.2514 26.2301 14.629 26.2301C14.6619 26.2301 14.6941 26.2269 14.7258 26.2224C14.6647 26.3248 14.629 26.444 14.629 26.5719C14.629 26.9494 14.935 27.2555 15.3126 27.2555C15.4404 27.2555 15.5596 27.2197 15.662 27.1586C15.6574 27.1904 15.6544 27.2225 15.6544 27.2555C15.6544 27.633 15.9604 27.9391 16.338 27.9391C16.5311 27.9391 16.7053 27.8586 16.8295 27.7297C16.8913 28.0439 17.1678 28.2809 17.5 28.2809C17.8322 28.2808 18.1088 28.0438 18.1705 27.7297Z" fill="white"/>
<path d="M8.07892 18.839C9.44394 18.839 10.5505 17.7325 10.5505 16.3674C10.5505 15.0024 9.44394 13.8958 8.07892 13.8958C6.71389 13.8958 5.60731 15.0024 5.60731 16.3674C5.60731 17.7325 6.71389 18.839 8.07892 18.839Z" fill="#FFBF94"/>
<path d="M8.07892 17.8799C6.87805 17.8799 5.87754 17.0233 5.65428 15.8878C5.62372 16.043 5.60738 16.2032 5.60738 16.3674C5.60738 17.7324 6.71398 18.839 8.07892 18.839C9.44392 18.839 10.5505 17.7324 10.5505 16.3674C10.5505 16.2033 10.5341 16.043 10.5036 15.8878C10.2803 17.0233 9.27978 17.8799 8.07892 17.8799Z" fill="#ED9572"/>
<path d="M26.9211 18.839C28.2861 18.839 29.3926 17.7324 29.3926 16.3674C29.3926 15.0024 28.2861 13.8959 26.9211 13.8959C25.5561 13.8959 24.4495 15.0024 24.4495 16.3674C24.4495 17.7324 25.5561 18.839 26.9211 18.839Z" fill="#FFBF94"/>
<path d="M26.921 17.8799C25.7202 17.8799 24.7196 17.0233 24.4964 15.8878C24.4658 16.043 24.4495 16.2032 24.4495 16.3674C24.4495 17.7324 25.5559 18.839 26.9209 18.839C28.2859 18.839 29.3925 17.7324 29.3925 16.3674C29.3925 16.2033 29.3761 16.043 29.3455 15.8878C29.1225 17.0233 28.122 17.8799 26.921 17.8799Z" fill="#ED9572"/>
<path d="M26.1585 12.6785C25.9652 8.06326 22.3857 4.38054 17.5021 4.37849C17.5013 4.37849 17.5006 4.37842 17.5 4.37842C17.4994 4.37842 17.4986 4.37842 17.498 4.37842C12.6144 4.38047 9.03479 8.06326 8.84153 12.6785H8.83319V17.9905H8.84153C9.03485 22.6057 12.9091 24.8136 17.498 24.8149V24.815C17.4987 24.815 17.4994 24.8149 17.5 24.8149C17.5006 24.8149 17.5014 24.815 17.5021 24.815V24.8149C22.0909 24.8136 25.9652 22.6057 26.1585 17.9905H26.1668V12.6785H26.1585Z" fill="#FFF2DC"/>
<path d="M26.1585 12.6785C25.9652 8.06326 22.3857 4.38054 17.5021 4.37849C17.5013 4.37849 17.5006 4.37842 17.5 4.37842C17.4994 4.37842 17.4986 4.37842 17.498 4.37842C12.6144 4.38047 9.03479 8.06326 8.84153 12.6785H8.83319V17.9905H8.84153C9.03485 22.6057 12.9091 24.8136 17.498 24.8149V24.815C17.4987 24.815 17.4994 24.8149 17.5 24.8149C17.5006 24.8149 17.5014 24.815 17.5021 24.815V24.8149C22.0909 24.8136 25.9652 22.6057 26.1585 17.9905H26.1668V12.6785H26.1585Z" fill="#FFBF94"/>
<path d="M26.1321 16.2546C24.9726 16.2546 24.0293 15.3114 24.0293 14.152C24.0293 13.9283 24.0643 13.7102 24.1309 13.5041C23.3253 13.1358 22.7315 12.3817 22.5875 11.4795C22.3819 11.5149 22.173 11.5328 21.9635 11.5328C20.3123 11.5328 18.9013 10.4422 18.4368 8.92773C18.3102 8.94298 18.1823 8.95063 18.0532 8.95063H16.9466C16.8176 8.95063 16.6897 8.94298 16.5631 8.92773C16.0986 10.4422 14.6876 11.5328 13.0364 11.5328C12.8269 11.5328 12.618 11.5149 12.4125 11.4795C12.2685 12.3817 11.6746 13.1358 10.869 13.5041C10.9356 13.7102 10.9706 13.9283 10.9706 14.152C10.9706 15.3113 10.0274 16.2546 8.86792 16.2546C7.70848 16.2546 6.76525 15.3114 6.76525 14.152C6.76525 13.5122 7.05612 12.9356 7.51249 12.5488C7.22244 12.1146 7.06036 11.5974 7.06036 11.0532C7.06036 9.69233 8.07509 8.56399 9.38766 8.3851C9.36106 8.2062 9.34753 8.02512 9.34753 7.8439C9.34753 5.8098 11.0024 4.15502 13.0364 4.15502C13.4088 4.15502 13.7769 4.21114 14.1288 4.32018C14.6625 3.29027 15.7389 2.60565 16.9466 2.60565H18.0532C19.2611 2.60565 20.3374 3.29021 20.8712 4.32018C21.223 4.21121 21.5911 4.15502 21.9635 4.15502C23.9976 4.15502 25.6525 5.80986 25.6525 7.8439C25.6525 8.02512 25.6389 8.20613 25.6123 8.3851C26.9249 8.56399 27.9396 9.6924 27.9396 11.0532C27.9396 11.5974 27.7776 12.1146 27.4874 12.5488C27.9439 12.9355 28.2347 13.5122 28.2347 14.152C28.2347 15.3113 27.2914 16.2546 26.1321 16.2546Z" fill="#B2AF79"/>
<path d="M11.5543 26.1974C11.5536 26.1983 11.5529 26.1991 11.5523 26.2C11.4466 26.3311 11.3452 26.4657 11.2483 26.6036C11.2481 26.6038 11.248 26.604 11.2479 26.6041C10.9074 27.0888 10.6218 27.6147 10.4002 28.173C10.4001 28.1732 10.4001 28.1734 10.4 28.1736C10.3372 28.332 10.2795 28.493 10.2271 28.6564C10.2263 28.6591 10.2255 28.6617 10.2246 28.6644C10.1731 28.8256 10.1268 28.9893 10.0859 29.1551C10.0849 29.1593 10.084 29.1634 10.0829 29.1676C10.0426 29.3325 10.0076 29.4994 9.97821 29.6683C9.9778 29.6706 9.97732 29.6727 9.97691 29.675L9.97698 29.6752C9.90295 30.1018 9.86399 30.5406 9.86399 30.9884C9.86399 31.9052 10.5859 32.6225 11.7155 33.1407V31.2221V26.0042V26.0036C11.6606 26.0672 11.6071 26.132 11.5543 26.1974Z" fill="#FFBF94"/>
<path d="M25.023 29.6808C25.023 29.6807 25.0232 29.6807 25.0232 29.6805C25.0227 29.6784 25.0222 29.6762 25.0218 29.6738C24.9921 29.5037 24.9569 29.3355 24.9162 29.1694C24.9152 29.1655 24.9142 29.1616 24.9132 29.1575C24.8721 28.9909 24.8255 28.8265 24.7737 28.6645C24.7726 28.6614 24.7717 28.6582 24.7706 28.6552C24.7181 28.4919 24.6604 28.3311 24.5975 28.1727C24.5968 28.1712 24.5963 28.1696 24.5956 28.1682C24.4364 27.7683 24.2442 27.3852 24.0224 27.0221C24.0215 27.0203 24.0205 27.0186 24.0194 27.017C23.9318 26.8736 23.8395 26.7334 23.7429 26.5965C23.7409 26.5936 23.7388 26.5908 23.7367 26.5879C23.6409 26.4525 23.5407 26.3203 23.4364 26.1915C23.4333 26.1877 23.4302 26.1839 23.427 26.18C23.3749 26.1159 23.3222 26.0525 23.2682 25.9902V25.9907V31.2352V33.1538C24.4072 32.635 25.136 31.9151 25.136 30.9939C25.1361 30.5462 25.097 30.1075 25.023 29.6808Z" fill="#FFBF94"/>
<path d="M11.68 20.613C12.8329 20.613 13.7675 19.6784 13.7675 18.5255C13.7675 17.3725 12.8329 16.4379 11.68 16.4379C10.527 16.4379 9.59239 17.3725 9.59239 18.5255C9.59239 19.6784 10.527 20.613 11.68 20.613Z" fill="#F97A7A"/>
<path d="M22.8633 20.613C24.0163 20.613 24.9509 19.6784 24.9509 18.5255C24.9509 17.3725 24.0163 16.4379 22.8633 16.4379C21.7104 16.4379 20.7758 17.3725 20.7758 18.5255C20.7758 19.6784 21.7104 20.613 22.8633 20.613Z" fill="#F97A7A"/>
<path d="M14.0201 16.0651C14.6789 16.0651 15.213 15.5311 15.213 14.8723C15.213 14.2135 14.6789 13.6794 14.0201 13.6794C13.3613 13.6794 12.8272 14.2135 12.8272 14.8723C12.8272 15.5311 13.3613 16.0651 14.0201 16.0651Z" fill="#493E2F"/>
<path d="M20.5211 16.0651C21.1799 16.0651 21.7139 15.5311 21.7139 14.8723C21.7139 14.2135 21.1799 13.6794 20.5211 13.6794C19.8623 13.6794 19.3282 14.2135 19.3282 14.8723C19.3282 15.5311 19.8623 16.0651 20.5211 16.0651Z" fill="#493E2F"/>
<path d="M17.3089 20.1578C16.6884 20.1578 16.0679 19.9216 15.5955 19.4493C15.4353 19.289 15.4353 19.0293 15.5955 18.8692C15.7556 18.7091 16.0154 18.7091 16.1755 18.8692C16.8006 19.4943 17.8174 19.4942 18.4424 18.8692C18.6025 18.7091 18.8623 18.7091 19.0224 18.8692C19.1826 19.0294 19.1826 19.2891 19.0224 19.4493C18.5499 19.9216 17.9294 20.1578 17.3089 20.1578Z" fill="#F97A7A"/>
</svg>
