
<svg width="35" height="35" viewBox="0 0 35 35" fill="none" xmlns="http://www.w3.org/2000/svg">
<path d="M20.5988 17.6718L22.6042 19.6875M20.5988 17.6718C21.3875 16.8805 21.875 15.7888 21.875 14.5833C21.875 12.1671 19.9163 10.2083 17.5 10.2083C15.0837 10.2083 13.125 12.1671 13.125 14.5833C13.125 16.9996 15.0837 18.9583 17.5 18.9583C18.7107 18.9583 19.8066 18.4666 20.5988 17.6718Z" stroke="#fff" stroke-width="3.75" stroke-linecap="round"/>
<path d="M7.29167 22.1901C6.34745 19.7782 5.83333 17.2102 5.83333 14.7923C5.83333 8.23358 11.0567 2.91667 17.5 2.91667C23.9434 2.91667 29.1667 8.23358 29.1667 14.7923C29.1667 21.2997 25.4431 28.8931 19.6334 31.6085C18.2792 32.2416 16.7208 32.2416 15.3666 31.6085C13.5111 30.7412 11.8684 29.3765 10.4918 27.7083" stroke="#fff" stroke-width="3.75" stroke-linecap="round"/>
</svg>
