
<svg width="35" height="35" viewBox="0 0 35 35" fill="none" xmlns="http://www.w3.org/2000/svg">
<path d="M20.4167 11.6667C20.4167 13.2775 19.1109 14.5833 17.5 14.5833C15.8891 14.5833 14.5833 13.2775 14.5833 11.6667C14.5833 10.0558 15.8891 8.75 17.5 8.75C19.1109 8.75 20.4167 10.0558 20.4167 11.6667Z" stroke="#1C274C" stroke-width="3.75"/>
<path d="M17.5 30.1693L18.2203 30.9924C18.4575 30.7847 18.5937 30.4847 18.5937 30.1693C18.5937 29.8538 18.4575 29.5539 18.2203 29.3462L17.5 30.1693ZM31.2467 21.0178C30.7732 20.6426 30.0853 20.7223 29.7102 21.1957C29.3351 21.6692 29.4147 22.3571 29.8882 22.7322L31.2467 21.0178ZM5.11179 22.7322C5.58526 22.3571 5.66497 21.6692 5.28983 21.1957C4.9147 20.7223 4.22677 20.6426 3.75331 21.0178L5.11179 22.7322ZM15.3125 28.2552L16.0328 27.4321C15.7097 27.1495 15.2514 27.0818 14.8606 27.2592C14.4697 27.4365 14.2187 27.826 14.2187 28.2552H15.3125ZM15.3125 32.0833H14.2187C14.2187 32.5125 14.4697 32.902 14.8606 33.0794C15.2514 33.2567 15.7097 33.189 16.0328 32.9064L15.3125 32.0833ZM21.0356 28.9002C20.4346 28.961 19.9968 29.4977 20.0576 30.0987C20.1186 30.6997 20.6551 31.1375 21.2561 31.0765L21.0356 28.9002ZM15.3771 29.0132C11.9605 28.8108 9.00162 28.1308 6.93519 27.1937C5.90015 26.7243 5.13972 26.2131 4.65302 25.7098C4.17124 25.2117 4.01042 24.7815 4.01042 24.4271H1.82292C1.82292 25.5121 2.33451 26.4591 3.08064 27.2306C3.82184 27.9969 4.84479 28.6475 6.03165 29.1858C8.40903 30.2641 11.6481 30.9838 15.2479 31.197L15.3771 29.0132ZM29.8882 22.7322C30.7247 23.3952 30.9896 23.9794 30.9896 24.4271H33.1771C33.1771 23.0414 32.3506 21.8925 31.2467 21.0178L29.8882 22.7322ZM4.01042 24.4271C4.01042 23.9794 4.27521 23.3952 5.11179 22.7322L3.75331 21.0178C2.64931 21.8925 1.82292 23.0414 1.82292 24.4271H4.01042ZM18.2203 29.3462L16.0328 27.4321L14.5922 29.0783L16.7797 30.9924L18.2203 29.3462ZM14.2187 28.2552V30.1051H16.4062V28.2552H14.2187ZM14.2187 30.1051V32.0833H16.4062V30.1051H14.2187ZM16.0328 32.9064L18.2203 30.9924L16.7797 29.3462L14.5922 31.2602L16.0328 32.9064ZM30.9896 24.4271C30.9896 25.093 30.3692 26.0492 28.4833 26.9942C26.6895 27.893 24.0946 28.5902 21.0356 28.9002L21.2561 31.0765C24.4869 30.7491 27.3608 30.0035 29.4633 28.95C31.4736 27.9425 33.1771 26.4368 33.1771 24.4271H30.9896Z" fill="#1C274C"/>
<path d="M9.84375 17.3718C9.13558 15.5629 8.75 13.6369 8.75 11.8234C8.75 6.90435 12.6675 2.91667 17.5 2.91667C22.3325 2.91667 26.25 6.90435 26.25 11.8234C26.25 16.7039 23.4573 22.399 19.1001 24.4355C18.0844 24.9104 16.9156 24.9104 15.8999 24.4355C14.5083 23.7851 13.2763 22.7615 12.2438 21.5104" stroke="#1C274C" stroke-width="3.75" stroke-linecap="round"/>
</svg>
