
<svg width="35" height="35" viewBox="0 0 35 35" fill="none" xmlns="http://www.w3.org/2000/svg">
<path d="M2.91667 17.5C2.91667 24.3746 2.91667 27.812 5.05235 29.9476C7.18802 32.0833 10.6253 32.0833 17.5 32.0833C24.3746 32.0833 27.812 32.0833 29.9476 29.9476C32.0833 27.812 32.0833 24.3746 32.0833 17.5C32.0833 10.6253 32.0833 7.18802 29.9476 5.05235C27.812 2.91667 24.3746 2.91667 17.5 2.91667C10.6253 2.91667 7.18802 2.91667 5.05235 5.05235C3.63231 6.47239 3.15648 8.46789 2.99702 11.6667" stroke="#1C274C" stroke-width="3.75" stroke-linecap="round"/>
<path d="M21.174 21.1458L19.5748 25.3193C19.1107 26.5303 17.4125 26.5697 17.0504 25.3778L15.5097 20.3071C15.3898 19.9128 15.0872 19.6102 14.6929 19.4903L9.62223 17.9496C8.43032 17.5875 8.46969 15.8893 9.68077 15.4252L23.0475 10.3034C24.1192 9.89276 25.1072 10.8807 24.6966 11.9525L23.2864 15.6329" stroke="#1C274C" stroke-width="3.75" stroke-linecap="round"/>
</svg>
