
<svg width="52" height="59" viewBox="0 0 52 59" fill="none" xmlns="http://www.w3.org/2000/svg">
    <g clip-path="url(#clip0_111_25)">
        <path d="M26 52.1748C40.3594 52.1748 52 40.4951 52 26.0874C52 11.6797 40.3594 0 26 0C11.6406 0 0 11.6797 0 26.0874C0 40.4951 11.6406 52.1748 26 52.1748Z" fill="#FFB000"/>
        <path d="M26 59L15.4565 35.5213H36.5435L26 59Z" fill="#FFB000"/>
        <path d="M26 48C38.1503 48 48 38.1503 48 26C48 13.8497 38.1503 4 26 4C13.8497 4 4 13.8497 4 26C4 38.1503 13.8497 48 26 48Z" fill="white"/>
        <path d="M26 46C37.0457 46 46 37.0457 46 26C46 14.9543 37.0457 6 26 6C14.9543 6 6 14.9543 6 26C6 37.0457 14.9543 46 26 46Z" fill="#A2A2A2"/>
        <path d="M35.6901 32.4853C33.5057 32.1223 30.5237 30.1171 30.5287 29.2544L30.5414 27.0745C30.5462 26.2617 31.7294 24.7473 32.2372 23.349C32.285 23.2172 32.5852 23.3711 32.8797 23.0385C33.4342 22.4052 33.5211 21.4388 33.6496 20.9992C33.8544 20.3078 32.9577 20.2745 32.9577 20.2745C32.9577 20.2745 33.6473 16.6433 33.067 14.3439C32.2824 11.2126 27.9699 9.612 26.2788 9.60214C24.5855 9.59227 20.2611 11.1425 19.4358 14.2644C18.8288 16.5569 19.4908 20.196 19.4908 20.196C19.4908 20.196 18.6259 20.2191 18.8205 20.9128C18.9461 21.354 19.0813 22.3215 19.6327 22.9613C19.9212 23.2972 20.0971 23.1462 20.1433 23.2786C20.6348 24.6827 21.8003 26.2107 21.7956 27.0235L21.7829 29.2034C21.7778 30.0661 18.7705 32.0364 16.582 32.3739C13.7716 32.8059 12.3731 34.6173 13.0042 39.1591C13.3198 41.427 19.6942 42.439 26.015 42.3918C32.3347 42.5127 38.8166 41.5756 39.1586 39.3115C39.8448 34.7775 38.4975 32.95 35.6901 32.4853Z" fill="#939393"/>
    </g>
    <defs>
        <clipPath id="clip0_111_25">
            <rect width="52" height="59" fill="white"/>
        </clipPath>
    </defs>
</svg>
