
<svg viewBox="0 0 504 653" fill="none" xmlns="http://www.w3.org/2000/svg">
  <ellipse cx="252" cy="260" rx="252" ry="260" fill="#19929B"/>
  <path d="M252 588.023L149.809 354.023H354.191L252 588.023Z" fill="#19929B"/>
  <g filter="url(#filter0_d_4_93)">
    <ellipse cx="252" cy="260" rx="214" ry="212" fill="white"/>
  </g>
  <path d="M359.798 220.295C366.007 215.987 370.076 208.812 370.076 200.682C370.076 194.325 367.585 188.553 363.532 184.276C364.949 180.742 365.737 176.886 365.737 172.845C365.737 155.874 351.98 142.117 335.01 142.117C334.8 142.117 334.594 142.129 334.385 142.132C332.44 127.033 319.547 115.364 303.918 115.364C301.297 115.364 298.752 115.694 296.322 116.313C289.765 104.945 277.495 97.2889 263.429 97.2889C259.259 97.2889 255.252 97.9709 251.499 99.213C247.746 97.9709 243.738 97.2889 239.569 97.2889C225.502 97.2889 213.233 104.945 206.675 116.313C204.246 115.695 201.701 115.364 199.079 115.364C183.451 115.364 170.558 127.033 168.613 142.132C168.405 142.128 168.199 142.117 167.989 142.117C151.018 142.117 137.26 155.874 137.26 172.845C137.26 176.887 138.048 180.742 139.466 184.276C135.413 188.553 132.922 194.325 132.922 200.682C132.922 208.812 136.99 215.987 143.199 220.295C142.486 220.772 141.807 221.322 141.177 221.952C135.954 227.176 135.954 235.645 141.177 240.869C145.489 245.18 152.006 245.922 157.089 243.118C165.374 287.594 204.381 321.267 251.259 321.267C298.226 321.267 337.294 287.466 345.477 242.864C350.618 245.957 357.384 245.301 361.817 240.868C367.042 235.644 367.042 227.175 361.817 221.951C361.19 221.322 360.512 220.772 359.798 220.295Z" fill="#96914B"/>
  <path d="M326.334 392.713C326.334 434.043 176.666 434.043 176.666 392.713C176.666 351.384 210.171 317.88 251.499 317.88C292.829 317.88 326.334 351.384 326.334 392.713Z" fill="#D1375F"/>
  <path d="M251.5 317.88C214.561 317.88 183.875 344.647 177.774 379.842C190.647 413.266 312.354 413.266 325.227 379.842C319.125 344.647 288.44 317.88 251.5 317.88Z" fill="#EF5B7B"/>
  <path d="M251.5 273.622C264.877 273.622 275.722 262.778 275.722 249.401C275.722 236.024 264.877 225.179 251.5 225.179C238.123 225.179 227.278 236.024 227.278 249.401C227.278 262.778 238.123 273.622 251.5 273.622Z" fill="#FFF2DC"/>
  <path d="M251.5 358.215C267.872 358.215 281.144 344.943 281.144 328.571C281.144 312.199 267.872 298.927 251.5 298.927C235.128 298.927 221.856 312.199 221.856 328.571C221.856 344.943 235.128 358.215 251.5 358.215Z" fill="#FFBF94"/>
  <path d="M251.5 298.927C238.281 298.927 227.087 307.582 223.264 319.533C227.087 331.485 238.281 340.14 251.5 340.14C264.72 340.14 275.913 331.485 279.737 319.533C275.913 307.582 264.719 298.927 251.5 298.927Z" fill="#ED9572"/>
  <path d="M251.5 273.622C264.877 273.622 275.722 262.778 275.722 249.401C275.722 236.024 264.877 225.179 251.5 225.179C238.123 225.179 227.278 236.024 227.278 249.401C227.278 262.778 238.123 273.622 251.5 273.622Z" fill="#FFF2DC"/>
  <path d="M258.071 360.751C259.289 362.014 260.995 362.803 262.889 362.803C266.589 362.803 269.588 359.803 269.588 356.104C269.588 355.781 269.558 355.465 269.514 355.155C270.516 355.754 271.684 356.104 272.938 356.104C276.637 356.104 279.637 353.104 279.637 349.405C279.637 348.151 279.286 346.983 278.688 345.98C278.998 346.024 279.314 346.055 279.637 346.055C283.337 346.055 286.336 343.055 286.336 339.356C286.336 337.437 285.525 335.711 284.232 334.49C286.284 333.345 287.676 331.154 287.676 328.637C287.676 328.144 287.62 327.665 287.518 327.201C285.367 326.011 283.15 324.922 280.876 323.944C281.115 325.452 281.251 326.996 281.251 328.572C281.251 344.944 267.979 358.216 251.607 358.216C235.235 358.216 221.962 344.944 221.962 328.572C221.962 326.909 222.107 325.281 222.372 323.694C220.031 324.677 217.751 325.777 215.538 326.986C215.403 327.514 215.325 328.066 215.325 328.637C215.325 331.155 216.715 333.345 218.768 334.49C217.475 335.711 216.665 337.436 216.665 339.356C216.665 343.055 219.664 346.055 223.364 346.055C223.687 346.055 224.002 346.024 224.313 345.98C223.714 346.983 223.364 348.151 223.364 349.405C223.364 353.104 226.363 356.104 230.063 356.104C231.316 356.104 232.484 355.754 233.487 355.155C233.443 355.465 233.413 355.781 233.413 356.104C233.413 359.803 236.412 362.803 240.112 362.803C242.005 362.803 243.711 362.014 244.929 360.751C245.534 363.83 248.245 366.153 251.5 366.153C254.755 366.152 257.466 363.829 258.071 360.751Z" fill="white"/>
  <path d="M159.173 273.622C172.551 273.622 183.395 262.778 183.395 249.401C183.395 236.024 172.551 225.179 159.173 225.179C145.796 225.179 134.952 236.024 134.952 249.401C134.952 262.778 145.796 273.622 159.173 273.622Z" fill="#FFBF94"/>
  <path d="M159.173 264.223C147.405 264.223 137.6 255.828 135.412 244.701C135.112 246.221 134.952 247.792 134.952 249.401C134.952 262.778 145.797 273.622 159.173 273.622C172.55 273.622 183.395 262.777 183.395 249.401C183.395 247.792 183.234 246.221 182.936 244.701C180.747 255.828 170.942 264.223 159.173 264.223Z" fill="#ED9572"/>
  <path d="M343.827 273.622C357.204 273.622 368.048 262.778 368.048 249.401C368.048 236.024 357.204 225.18 343.827 225.18C330.45 225.18 319.606 236.024 319.606 249.401C319.606 262.778 330.45 273.622 343.827 273.622Z" fill="#FFBF94"/>
  <path d="M343.826 264.223C332.058 264.223 322.252 255.828 320.064 244.701C319.765 246.221 319.605 247.792 319.605 249.401C319.605 262.778 330.448 273.622 343.825 273.622C357.202 273.622 368.047 262.777 368.047 249.401C368.047 247.792 367.886 246.221 367.586 244.701C365.4 255.828 355.596 264.223 343.826 264.223Z" fill="#ED9572"/>
  <path d="M336.354 213.249C334.459 168.02 299.38 131.929 251.52 131.909C251.513 131.909 251.506 131.908 251.5 131.908C251.494 131.908 251.487 131.908 251.481 131.908C203.621 131.929 168.541 168.02 166.647 213.249H166.565V265.307H166.647C168.542 310.536 206.509 332.174 251.481 332.186V332.187C251.487 332.187 251.494 332.186 251.5 332.186C251.506 332.186 251.513 332.187 251.52 332.187V332.186C296.491 332.173 334.459 310.536 336.354 265.307H336.435V213.249H336.354Z" fill="#FFF2DC"/>
  <path d="M336.354 213.249C334.459 168.02 299.38 131.929 251.52 131.909C251.513 131.909 251.506 131.908 251.5 131.908C251.494 131.908 251.487 131.908 251.481 131.908C203.621 131.929 168.541 168.02 166.647 213.249H166.565V265.307H166.647C168.542 310.536 206.509 332.174 251.481 332.186V332.187C251.487 332.187 251.494 332.186 251.5 332.186C251.506 332.186 251.513 332.187 251.52 332.187V332.186C296.491 332.173 334.459 310.536 336.354 265.307H336.435V213.249H336.354Z" fill="#FFBF94"/>
  <path d="M336.094 248.295C324.732 248.295 315.488 239.052 315.488 227.689C315.488 225.497 315.831 223.36 316.483 221.34C308.588 217.731 302.769 210.341 301.358 201.499C299.342 201.846 297.296 202.022 295.242 202.022C279.061 202.022 265.233 191.333 260.681 176.492C259.44 176.641 258.186 176.716 256.922 176.716H246.077C244.812 176.716 243.559 176.641 242.319 176.492C237.767 191.334 223.939 202.022 207.757 202.022C205.703 202.022 203.656 201.846 201.642 201.499C200.231 210.341 194.411 217.731 186.516 221.34C187.169 223.36 187.512 225.497 187.512 227.689C187.512 239.051 178.268 248.295 166.906 248.295C155.543 248.295 146.299 239.052 146.299 227.689C146.299 221.419 149.15 215.769 153.622 211.978C150.78 207.724 149.192 202.655 149.192 197.322C149.192 183.985 159.136 172.927 171.999 171.174C171.738 169.421 171.606 167.646 171.606 165.87C171.606 145.936 187.823 129.719 207.757 129.719C211.406 129.719 215.014 130.269 218.462 131.338C223.693 121.245 234.241 114.535 246.077 114.535H256.922C268.759 114.535 279.306 121.244 284.538 131.338C287.985 130.27 291.593 129.719 295.243 129.719C315.177 129.719 331.395 145.937 331.395 165.87C331.395 167.646 331.262 169.42 331.001 171.174C343.864 172.927 353.808 183.986 353.808 197.322C353.808 202.655 352.22 207.724 349.377 211.978C353.851 215.768 356.701 221.419 356.701 227.689C356.7 239.051 347.456 248.295 336.094 248.295Z" fill="#B2AF79"/>
  <path d="M193.232 345.735C193.226 345.743 193.218 345.752 193.212 345.76C192.177 347.045 191.183 348.364 190.233 349.715C190.232 349.717 190.23 349.719 190.23 349.72C186.893 354.47 184.094 359.624 181.922 365.096C181.921 365.097 181.921 365.099 181.92 365.101C181.304 366.653 180.739 368.231 180.226 369.833C180.218 369.859 180.21 369.885 180.201 369.911C179.696 371.491 179.243 373.095 178.842 374.72C178.832 374.761 178.823 374.801 178.813 374.842C178.418 376.458 178.075 378.094 177.786 379.749C177.782 379.772 177.778 379.792 177.774 379.815L177.774 379.817C177.049 383.998 176.667 388.298 176.667 392.686C176.667 401.671 183.742 408.7 194.812 413.779V394.976V343.842V343.836C194.274 344.459 193.749 345.094 193.232 345.735Z" fill="#FFBF94"/>
  <path d="M325.226 379.872C325.226 379.871 325.227 379.871 325.227 379.869C325.223 379.848 325.218 379.827 325.214 379.804C324.923 378.136 324.578 376.488 324.179 374.86C324.169 374.822 324.159 374.783 324.15 374.744C323.746 373.111 323.29 371.5 322.782 369.912C322.772 369.882 322.763 369.851 322.752 369.821C322.238 368.221 321.672 366.644 321.055 365.092C321.049 365.078 321.043 365.062 321.037 365.048C319.476 361.13 317.593 357.375 315.42 353.816C315.411 353.799 315.401 353.783 315.39 353.767C314.532 352.361 313.627 350.988 312.68 349.646C312.661 349.618 312.64 349.59 312.62 349.561C311.68 348.234 310.699 346.939 309.677 345.677C309.647 345.639 309.616 345.602 309.585 345.564C309.074 344.936 308.558 344.315 308.028 343.704V343.709V395.105V413.907C319.19 408.823 326.333 401.768 326.333 392.74C326.334 388.353 325.95 384.054 325.226 379.872Z" fill="#FFBF94"/>
  <path d="M194.464 291.008C205.762 291.008 214.922 281.848 214.922 270.55C214.922 259.251 205.762 250.091 194.464 250.091C183.165 250.091 174.005 259.251 174.005 270.55C174.005 281.848 183.165 291.008 194.464 291.008Z" fill="#F97A7A"/>
  <path d="M304.061 291.008C315.359 291.008 324.519 281.848 324.519 270.55C324.519 259.251 315.359 250.091 304.061 250.091C292.762 250.091 283.603 259.251 283.603 270.55C283.603 281.848 292.762 291.008 304.061 291.008Z" fill="#F97A7A"/>
  <path d="M217.397 246.438C223.853 246.438 229.087 241.205 229.087 234.748C229.087 228.292 223.853 223.058 217.397 223.058C210.941 223.058 205.707 228.292 205.707 234.748C205.707 241.205 210.941 246.438 217.397 246.438Z" fill="#493E2F"/>
  <path d="M281.107 246.438C287.563 246.438 292.797 241.205 292.797 234.748C292.797 228.292 287.563 223.058 281.107 223.058C274.65 223.058 269.416 228.292 269.416 234.748C269.416 241.205 274.65 246.438 281.107 246.438Z" fill="#493E2F"/>
  <path d="M249.628 286.547C243.547 286.547 237.466 284.232 232.836 279.603C231.266 278.033 231.266 275.488 232.836 273.918C234.405 272.349 236.951 272.349 238.52 273.918C244.646 280.044 254.61 280.043 260.736 273.918C262.304 272.349 264.851 272.349 266.419 273.918C267.989 275.488 267.989 278.033 266.419 279.603C261.789 284.232 255.708 286.547 249.628 286.547Z" fill="#F97A7A"/>
  <defs>
    <filter id="filter0_d_4_93" x="34" y="48" width="436" height="432" filterUnits="userSpaceOnUse" color-interpolation-filters="sRGB">
      <feFlood flood-opacity="0" result="BackgroundImageFix"/>
      <feColorMatrix in="SourceAlpha" type="matrix" values="0 0 0 0 0 0 0 0 0 0 0 0 0 0 0 0 0 0 127 0" result="hardAlpha"/>
      <feOffset dy="4"/>
      <feGaussianBlur stdDeviation="2"/>
      <feComposite in2="hardAlpha" operator="out"/>
      <feColorMatrix type="matrix" values="0 0 0 0 0 0 0 0 0 0 0 0 0 0 0 0 0 0 0.25 0"/>
      <feBlend mode="normal" in2="BackgroundImageFix" result="effect1_dropShadow_4_93"/>
      <feBlend mode="normal" in="SourceGraphic" in2="effect1_dropShadow_4_93" result="shape"/>
    </filter>
  </defs>
</svg>
