
<svg viewBox="0 0 504 653" fill="none" xmlns="http://www.w3.org/2000/svg">
    <ellipse cx="252" cy="260" rx="252" ry="260" fill="#19929B"/>
    <path d="M252 588.023L149.809 354.023H354.191L252 588.023Z" fill="#19929B"/>
    <g filter="url(#filter0_d_12_337)">
        <ellipse cx="252" cy="260" rx="214" ry="212" fill="white"/>
    </g>
    <g clip-path="url(#clip0_12_337)">
        <path d="M252 155.214C259.577 155.214 266.95 156.065 274.066 157.598C276.987 151.367 278.71 143.828 278.71 135.693C278.71 135.693 266.907 97.0009 252.345 97.0009H251.66C237.095 97.0009 225.295 135.693 225.295 135.693C225.295 143.828 227.015 151.367 229.937 157.598C237.053 156.065 244.424 155.214 252 155.214Z" fill="#19929B"/>
        <path d="M376.305 233.29C368.173 233.29 360.633 235.01 354.4 237.931C355.94 245.053 356.787 252.429 356.787 260C356.787 267.571 355.941 274.949 354.4 282.066C360.633 284.987 368.173 286.71 376.305 286.71C376.305 286.71 415.001 274.902 415.001 260.346V259.66C415 245.099 376.305 233.29 376.305 233.29Z" fill="#19929B"/>
        <path d="M252 364.786C244.424 364.786 237.053 363.935 229.931 362.399C227.01 368.632 225.29 376.171 225.29 384.303C225.29 384.303 237.096 423 251.655 423H252.34C266.908 423 278.706 384.303 278.706 384.303C278.706 376.171 276.988 368.632 274.067 362.399C266.95 363.935 259.577 364.786 252 364.786Z" fill="#19929B"/>
        <path d="M187.951 369.827C193.457 363.791 197.283 357.028 199.313 350.426C186.477 342.919 175.394 332.79 166.774 320.736C160.386 323.362 153.997 327.788 148.491 333.828C148.491 333.828 131.128 370.361 141.888 380.185L142.393 380.646C153.148 390.458 187.951 369.827 187.951 369.827Z" fill="#19929B"/>
        <path d="M166.774 199.266C175.388 187.211 186.477 177.082 199.313 169.575C197.283 162.972 193.462 156.212 187.951 150.174C187.951 150.174 153.149 129.546 142.394 139.358L141.888 139.819C131.134 149.632 148.491 186.175 148.491 186.175C153.996 192.213 160.379 196.636 166.774 199.266Z" fill="#19929B"/>
        <path d="M337.224 199.266C343.613 196.636 350.001 192.213 355.512 186.176C355.512 186.176 372.88 149.637 362.114 139.819L361.612 139.358C350.858 129.545 316.057 150.174 316.057 150.174C310.546 156.213 306.726 162.973 304.692 169.575C317.524 177.082 328.61 187.21 337.224 199.266Z" fill="#19929B"/>
        <path d="M337.224 320.735C328.61 332.789 317.523 342.919 304.687 350.425C306.714 357.028 310.535 363.791 316.046 369.826C316.046 369.826 350.852 390.457 361.606 380.645L362.114 380.184C372.868 370.371 355.512 333.827 355.512 333.827C350.001 327.787 343.623 323.361 337.224 320.735Z" fill="#19929B"/>
        <path d="M127.693 286.709C135.828 286.709 143.367 284.986 149.598 282.065C148.062 274.949 147.214 267.57 147.214 259.999C147.214 252.428 148.062 245.053 149.598 237.93C143.367 235.01 135.828 233.289 127.693 233.289C127.693 233.289 89 245.097 89 259.653V260.339C89 274.901 127.693 286.709 127.693 286.709Z" fill="#19929B"/>
        <path d="M178.331 202.01C168.747 214.167 162.15 228.742 159.526 244.687C158.704 249.684 158.167 254.773 158.167 260.001C158.167 265.229 158.705 270.317 159.526 275.315C162.15 291.26 168.742 305.835 178.331 317.991C184.695 326.071 192.338 333.064 200.985 338.688C211.597 345.579 223.69 350.33 236.681 352.471C241.679 353.296 246.767 353.83 251.995 353.83C257.222 353.83 262.311 353.295 267.308 352.471C280.299 350.331 292.391 345.58 303.002 338.688C311.649 333.07 319.294 326.072 325.656 317.991C335.245 305.835 341.837 291.26 344.464 275.315C345.282 270.318 345.822 265.23 345.822 260.001C345.822 254.774 345.282 249.685 344.464 244.687C341.837 228.747 335.244 214.168 325.656 202.01C319.294 193.934 311.649 186.938 303.002 181.317C292.392 174.423 280.299 169.669 267.308 167.531C262.311 166.71 257.222 166.172 251.995 166.172C246.767 166.172 241.679 166.711 236.681 167.531C223.69 169.668 211.598 174.423 200.985 181.317C192.339 186.938 184.695 193.934 178.331 202.01Z" fill="#19929B"/>
    </g>
    <defs>
        <filter id="filter0_d_12_337" x="34" y="48" width="436" height="432" filterUnits="userSpaceOnUse" color-interpolation-filters="sRGB">
            <feFlood flood-opacity="0" result="BackgroundImageFix"/>
            <feColorMatrix in="SourceAlpha" type="matrix" values="0 0 0 0 0 0 0 0 0 0 0 0 0 0 0 0 0 0 127 0" result="hardAlpha"/>
            <feOffset dy="4"/>
            <feGaussianBlur stdDeviation="2"/>
            <feComposite in2="hardAlpha" operator="out"/>
            <feColorMatrix type="matrix" values="0 0 0 0 0 0 0 0 0 0 0 0 0 0 0 0 0 0 0.25 0"/>
            <feBlend mode="normal" in2="BackgroundImageFix" result="effect1_dropShadow_12_337"/>
            <feBlend mode="normal" in="SourceGraphic" in2="effect1_dropShadow_12_337" result="shape"/>
        </filter>
        <clipPath id="clip0_12_337">
            <rect width="326" height="326" fill="white" transform="translate(89 97)"/>
        </clipPath>
    </defs>
</svg>
