
<svg width="35" height="35" viewBox="0 0 35 35" fill="none" xmlns="http://www.w3.org/2000/svg">
<path d="M17.5 17.5C19.9162 17.5 21.875 15.5412 21.875 13.125C21.875 10.7088 19.9162 8.75 17.5 8.75C15.0838 8.75 13.125 10.7088 13.125 13.125C13.125 15.5412 15.0838 17.5 17.5 17.5Z" stroke="#fff" stroke-width="3.75"/>
<path d="M26.2049 29.1667C25.9729 24.9499 24.6819 21.875 17.4999 21.875C10.318 21.875 9.02695 24.9499 8.79486 29.1667" stroke="#fff" stroke-width="3.75" stroke-linecap="round"/>
<path d="M10.2083 4.86765C12.3534 3.62683 14.8438 2.91667 17.5 2.91667C25.5541 2.91667 32.0833 9.44584 32.0833 17.5C32.0833 25.5541 25.5541 32.0833 17.5 32.0833C9.44584 32.0833 2.91667 25.5541 2.91667 17.5C2.91667 14.8438 3.62683 12.3534 4.86765 10.2083" stroke="#fff" stroke-width="3.75" stroke-linecap="round"/>
</svg>
