
<svg width="54" height="53" viewBox="0 0 54 53" fill="none" xmlns="http://www.w3.org/2000/svg">
    <path d="M47.1613 43.2317C49.8533 39.9919 51.7255 36.1515 52.6194 32.0352C53.5134 27.9189 53.4029 23.6479 52.2973 19.5833C51.1916 15.5188 49.1233 11.7803 46.2674 8.68413C43.4114 5.58792 39.8518 3.22506 35.8896 1.79541C31.9274 0.365751 27.6792 -0.0886469 23.5043 0.470648C19.3293 1.02994 15.3505 2.58648 11.9043 5.0086C8.45811 7.43072 5.64593 10.6472 3.70563 14.3859C1.76532 18.1246 0.75397 22.2757 0.757113 26.4879C0.758582 32.612 2.91675 38.54 6.85293 43.2317L6.81543 43.2628C6.94668 43.4212 7.09668 43.5566 7.23205 43.7113C7.4008 43.9055 7.58155 44.0863 7.75705 44.2753C8.28205 44.844 8.82093 45.3913 9.3883 45.9065C9.55986 46.0623 9.7378 46.2088 9.9133 46.3597C10.5133 46.877 11.1291 47.367 11.7696 47.8247C11.8522 47.8832 11.9256 47.9546 12.0088 48.0133V47.9895C16.4003 51.0798 21.639 52.7383 27.0088 52.7383C32.3786 52.7383 37.6173 51.0798 42.0088 47.9895V48.0129C42.092 47.9542 42.1654 47.8828 42.248 47.8243C42.8878 47.3666 43.5043 46.8767 44.1043 46.3593C44.2798 46.2093 44.4577 46.062 44.6293 45.9062C45.1965 45.3907 45.7356 44.8434 46.2606 44.2749C46.4355 44.0863 46.6157 43.9052 46.7856 43.7109C46.9204 43.5562 47.0709 43.4208 47.2022 43.2624L47.1613 43.2317ZM27.0071 11.4879C28.6759 11.4879 30.3072 11.9828 31.6947 12.9099C33.0823 13.837 34.1637 15.1548 34.8023 16.6965C35.441 18.2383 35.6081 19.9348 35.2825 21.5715C34.9569 23.2082 34.1533 24.7116 32.9733 25.8916C31.7933 27.0716 30.2899 27.8752 28.6532 28.2008C27.0165 28.5263 25.32 28.3593 23.7782 27.7206C22.2365 27.082 20.9187 26.0006 19.9916 24.613C19.0645 23.2255 18.5696 21.5942 18.5696 19.9254C18.5696 17.6876 19.4586 15.5415 21.0409 13.9592C22.6232 12.3769 24.7693 11.4879 27.0071 11.4879ZM12.0204 43.2317C12.0528 40.7697 13.0532 38.4195 14.8052 36.6896C16.5573 34.9596 18.92 33.9891 21.3821 33.9879H32.6321C35.0943 33.9891 37.4569 34.9597 39.2089 36.6896C40.9609 38.4196 41.9614 40.7697 41.9938 43.2317C37.8817 46.9372 32.5425 48.9879 27.0071 48.9879C21.4717 48.9879 16.1326 46.9372 12.0204 43.2317Z" fill="#5A5A5A"/>
</svg>
