<svg width="80" height="80" viewBox="0 0 80 80" fill="none" xmlns="http://www.w3.org/2000/svg">
<circle cx="39.939" cy="39.8164" r="39.5" fill="#F1F1F1"/>
<mask id="mask0_228_363" style="mask-type:luminance" maskUnits="userSpaceOnUse" x="40" y="37" width="16" height="15">
<path d="M55.1185 40.1705C55.1185 39.0707 55.0204 38.0138 54.8364 37H40.2483V42.9951H48.5838C48.2243 44.9332 47.1338 46.5736 45.4928 47.6734V51.5617H50.4983C53.4276 48.8645 55.1185 44.8902 55.1185 40.1705Z" fill="white"/>
</mask>
<g mask="url(#mask0_228_363)">
<path d="M63.7241 28.3906H31.6427V60.1751H63.7241V28.3906Z" fill="#3E82F1"/>
</g>
<mask id="mask1_228_363" style="mask-type:luminance" maskUnits="userSpaceOnUse" x="26" y="42" width="25" height="14">
<path d="M40.2485 55.3165C44.4301 55.3165 47.9373 53.9292 50.5003 51.5607L45.4948 47.6724C44.1084 48.6019 42.3333 49.1527 40.2503 49.1527C36.2166 49.1527 32.8006 46.4263 31.5827 42.7617H26.407V46.7774C28.9544 51.843 34.1938 55.3165 40.2485 55.3165Z" fill="white"/>
</mask>
<g mask="url(#mask1_228_363)">
<path d="M59.1058 34.1523H17.8013V63.9299H59.1058V34.1523Z" fill="#32A753"/>
</g>
<mask id="mask2_228_363" style="mask-type:luminance" maskUnits="userSpaceOnUse" x="24" y="32" width="8" height="15">
<path d="M31.5807 42.7612C31.271 41.8318 31.0956 40.8386 31.0956 39.8162C31.0956 38.7938 31.271 37.8006 31.5807 36.8711V32.8555H26.4066C25.3574 34.9485 24.7588 37.3152 24.7588 39.8162C24.7588 42.3172 25.3574 44.6839 26.4066 46.7769L31.5807 42.7612Z" fill="white"/>
</mask>
<g mask="url(#mask2_228_363)">
<path d="M40.1864 24.2461H16.1533V55.3903H40.1864V24.2461Z" fill="#F9BB00"/>
</g>
<mask id="mask3_228_363" style="mask-type:luminance" maskUnits="userSpaceOnUse" x="26" y="24" width="25" height="13">
<path d="M40.2481 30.4802C42.5221 30.4802 44.5638 31.2616 46.1687 32.7987L50.6117 28.3527C47.9283 25.8518 44.4228 24.3164 40.2481 24.3164C34.1934 24.3164 28.954 27.7899 26.4066 32.8555L31.5823 36.8712C32.7984 33.2066 36.2145 30.4802 40.2481 30.4802Z" fill="white"/>
</mask>
<g mask="url(#mask3_228_363)">
<path d="M59.2174 15.7031H17.8011V45.4807H59.2174V15.7031Z" fill="#E74133"/>
</g>
</svg>
