<svg width="80" height="80" viewBox="0 0 80 80" fill="none" xmlns="http://www.w3.org/2000/svg">
<circle cx="39.7749" cy="39.8164" r="39.5" fill="#F8DD20"/>
<g clip-path="url(#clip0_228_356)">
<path d="M40.7734 26.3164C32.4893 26.3164 25.7749 31.4853 25.7749 37.8623C25.7749 41.9635 28.5573 45.5557 32.7354 47.6122L31.3217 52.7548C31.2676 52.9098 31.3127 53.0795 31.4297 53.1935C31.5108 53.2725 31.6188 53.3164 31.7359 53.3164C31.8259 53.3164 31.916 53.2784 31.997 53.2199L38.0751 49.2181C38.9575 49.341 39.8579 49.4112 40.7764 49.4112C49.0575 49.4112 55.7779 44.2423 55.7779 37.8623C55.7749 31.4853 49.0575 26.3164 40.7734 26.3164Z" fill="#3B1E1D"/>
</g>
<defs>
<clipPath id="clip0_228_356">
<rect width="30" height="27" fill="white" transform="translate(25.7749 26.3164)"/>
</clipPath>
</defs>
</svg>
