<svg width="31" height="28" viewBox="0 0 31 28" fill="none" xmlns="http://www.w3.org/2000/svg">
<g clip-path="url(#clip0_238_336)">
<path d="M15.0749 0.40625C6.79077 0.40625 0.076416 5.57516 0.076416 11.9522C0.076416 16.0534 2.85881 19.6456 7.0369 21.702L5.62319 26.8446C5.56916 26.9996 5.61419 27.1693 5.73124 27.2834C5.81228 27.3624 5.92034 27.4062 6.0374 27.4062C6.12744 27.4062 6.21749 27.3682 6.29853 27.3097L12.3766 23.308C13.259 23.4308 14.1595 23.501 15.0779 23.501C23.3591 23.501 30.0794 18.3321 30.0794 11.9522C30.0764 5.57516 23.3591 0.40625 15.0749 0.40625Z" fill="#3B1E1D"/>
</g>
<defs>
<clipPath id="clip0_238_336">
<rect width="30" height="27" fill="white" transform="translate(0.076416 0.40625)"/>
</clipPath>
</defs>
</svg>
